<svg width="48" height="49" viewBox="0 0 48 49" fill="none" xmlns="http://www.w3.org/2000/svg">
<rect y="0.5" width="48" height="48" rx="24" fill="black"/>
<path fill-rule="evenodd" clip-rule="evenodd" d="M29.1843 21.2374C30.7919 22.3813 32.7171 22.9924 34.6896 22.985V19.0724C34.3018 19.0735 33.9151 19.032 33.5364 18.9485V22.0656C31.5595 22.0691 29.6315 21.4509 28.0246 20.2984V28.3452C28.0197 29.6656 27.6579 30.9601 26.9776 32.0914C26.2972 33.2227 25.3237 34.1486 24.1602 34.771C22.9967 35.3934 21.6866 35.689 20.3688 35.6266C19.051 35.5641 17.7747 35.1459 16.6752 34.4162C17.6922 35.4462 18.9917 36.1509 20.4092 36.4411C21.8267 36.7314 23.2983 36.5941 24.6377 36.0466C25.9772 35.4992 27.1242 34.5663 27.9336 33.3659C28.7429 32.1656 29.1782 30.7519 29.1843 29.3038V21.2374ZM30.6111 17.2466C29.7935 16.3597 29.2919 15.2271 29.1843 14.0252V13.5166H28.0897C28.225 14.2806 28.5194 15.0075 28.9538 15.6501C29.3882 16.2928 29.9529 16.8367 30.6111 17.2466ZM19.2096 31.3188C18.8302 30.8222 18.5977 30.2291 18.5386 29.6068C18.4794 28.9846 18.596 28.3582 18.875 27.799C19.154 27.2398 19.5843 26.7702 20.1168 26.4437C20.6494 26.1171 21.2628 25.9468 21.8873 25.952C22.2321 25.9519 22.5748 26.0047 22.9037 26.1085V22.0656C22.5193 22.0146 22.1316 21.9928 21.744 22.0003V25.1434C20.9433 24.8901 20.0768 24.9477 19.3166 25.3048C18.5565 25.6618 17.9585 26.2922 17.6415 27.0705C17.3246 27.8487 17.312 28.7179 17.6061 29.505C17.9003 30.2922 18.4797 30.9397 19.2291 31.3188H19.2096Z" fill="#EE1D52"/>
<path fill-rule="evenodd" clip-rule="evenodd" d="M28.0241 20.2723C29.631 21.4248 31.559 22.043 33.5359 22.0395V18.9225C32.4096 18.6841 31.3864 18.0979 30.6106 17.2466C29.9524 16.8367 29.3877 16.2928 28.9533 15.6501C28.5189 15.0075 28.2245 14.2806 28.0892 13.5166H25.2095V29.3038C25.2068 30.0026 24.9856 30.683 24.5768 31.2495C24.1681 31.816 23.5923 32.2402 22.9304 32.4625C22.2685 32.6847 21.5536 32.694 20.8862 32.4888C20.2188 32.2837 19.6323 31.8745 19.2091 31.3188C18.5384 30.9801 18.0012 30.425 17.6843 29.7433C17.3674 29.0615 17.2892 28.2928 17.4624 27.5611C17.6356 26.8294 18.05 26.1775 18.6387 25.7105C19.2275 25.2434 19.9563 24.9885 20.7076 24.9869C21.0523 24.988 21.3948 25.0408 21.7239 25.1434V22.0003C20.302 22.0345 18.9211 22.4835 17.7505 23.2921C16.58 24.1007 15.6708 25.2338 15.1346 26.5523C14.5984 27.8708 14.4585 29.3174 14.7321 30.7143C15.0057 32.1113 15.6808 33.3979 16.6747 34.4162C17.7744 35.1511 19.0528 35.5737 20.3735 35.6389C21.6942 35.7041 23.0079 35.4095 24.1746 34.7865C25.3413 34.1635 26.3173 33.2354 26.9986 32.1011C27.6799 30.9668 28.0411 29.6687 28.0436 28.3452L28.0241 20.2723Z" fill="white"/>
<path fill-rule="evenodd" clip-rule="evenodd" d="M33.5362 18.9222V18.081C32.5018 18.0854 31.4875 17.796 30.6109 17.2463C31.3847 18.1001 32.4087 18.6868 33.5362 18.9222ZM28.0895 13.5164C28.0895 13.3664 28.0439 13.2099 28.0244 13.0599V12.5513H24.0501V28.345C24.0467 29.2293 23.6928 30.0762 23.0662 30.6997C22.4396 31.3232 21.5914 31.6724 20.7079 31.6707C20.1876 31.6733 19.6741 31.5526 19.2094 31.3185C19.6326 31.8743 20.2191 32.2835 20.8865 32.4886C21.5539 32.6937 22.2688 32.6845 22.9307 32.4622C23.5926 32.24 24.1684 31.8158 24.5771 31.2493C24.9859 30.6828 25.2072 30.0024 25.2098 29.3036V13.5164H28.0895ZM21.7242 21.9936V21.1002C20.0889 20.8779 18.4265 21.2165 17.0079 22.0608C15.5894 22.9051 14.4985 24.2055 13.9129 25.7498C13.3272 27.2942 13.2815 28.9916 13.7831 30.5653C14.2847 32.139 15.304 33.4963 16.675 34.416C15.6887 33.3953 15.0207 32.1092 14.7527 30.7148C14.4847 29.3204 14.6283 27.878 15.1659 26.5639C15.7035 25.2498 16.6119 24.1209 17.78 23.3151C18.9481 22.5092 20.3255 22.0614 21.7438 22.0262L21.7242 21.9936Z" fill="#69C9D0"/>
</svg>
