<svg width="48" height="48" viewBox="0 0 48 48" fill="none" xmlns="http://www.w3.org/2000/svg">
<path d="M11.8663 34.7025H16.3132V23.9028L9.96045 19.1382V32.7967C9.96045 33.8512 10.8149 34.7025 11.8663 34.7025Z" fill="#45651C"/>
<path d="M31.5599 34.7025H36.0069C37.0614 34.7025 37.9127 33.848 37.9127 32.7967V19.1382L31.5599 23.9028" fill="#45651C"/>
<path d="M31.5599 15.6442V23.9028L37.9127 19.1382V16.5971C37.9127 14.2402 35.2223 12.8966 33.3387 14.3101" fill="#45651C"/>
<path d="M16.3132 23.9027V15.644L23.9366 21.3615L31.5599 15.644V23.9027L23.9366 29.6202" fill="#45651C"/>
<path d="M9.96045 16.5971V19.1382L16.3132 23.9028V15.6442L14.5345 14.3101C12.6477 12.8966 9.96045 14.2402 9.96045 16.5971Z" fill="#45651C"/>
</svg>
