<svg width="29" height="22" viewBox="0 0 29 22" fill="none" xmlns="http://www.w3.org/2000/svg">
<path d="M2.86628 21.7025H7.31323V10.9028L0.960449 6.13818V19.7967C0.960449 20.8512 1.8149 21.7025 2.86628 21.7025Z" fill="#45651C"/>
<path d="M22.5601 21.7025H27.007C28.0616 21.7025 28.9128 20.848 28.9128 19.7967V6.13818L22.5601 10.9028" fill="#45651C"/>
<path d="M22.5601 2.64415V10.9028L28.9128 6.13818V3.59707C28.9128 1.24019 26.2224 -0.103427 24.3388 1.31007" fill="#45651C"/>
<path d="M7.31299 10.9027V2.64404L14.9363 8.36154L22.5597 2.64404V10.9027L14.9363 16.6202" fill="#45651C"/>
<path d="M0.960449 3.59707V6.13818L7.31323 10.9028V2.64415L5.53445 1.31007C3.64768 -0.103427 0.960449 1.24019 0.960449 3.59707Z" fill="#45651C"/>
</svg>
