<svg width="23" height="20" viewBox="0 0 23 20" fill="none" xmlns="http://www.w3.org/2000/svg">
<path d="M1.35369 9.1496C1.35369 9.1496 11.1191 5.03655 14.506 3.58825C15.8043 3.00898 20.2072 1.15514 20.2072 1.15514C20.2072 1.15514 22.2393 0.344159 22.07 2.31377C22.0135 3.12483 21.5619 5.96339 21.1104 9.03374C20.433 13.3786 19.6992 18.1289 19.6992 18.1289C19.6992 18.1289 19.5863 19.4613 18.6267 19.693C17.6671 19.9247 16.0865 18.882 15.8043 18.6502C15.5784 18.4765 11.5707 15.8696 10.1031 14.5951C9.70792 14.2475 9.25636 13.5524 10.1595 12.7413C12.1916 10.8296 14.6189 8.45447 16.0865 6.94828C16.7639 6.25307 17.4412 4.63102 14.6188 6.60063C10.6111 9.43927 6.65977 12.1041 6.65977 12.1041C6.65977 12.1041 5.75658 12.6834 4.06317 12.162C2.36969 11.6407 0.394016 10.9455 0.394016 10.9455C0.394016 10.9455 -0.960648 10.0765 1.35369 9.1496Z" fill="#45651C"/>
</svg>
