<svg width="48" height="48" viewBox="0 0 48 48" fill="none" xmlns="http://www.w3.org/2000/svg">
<path d="M13.3538 23.1496C13.3538 23.1496 23.1193 19.0366 26.5061 17.5883C27.8044 17.009 32.2073 15.1551 32.2073 15.1551C32.2073 15.1551 34.2395 14.3442 34.0701 16.3138C34.0136 17.1248 33.5621 19.9634 33.1105 23.0337C32.4331 27.3786 31.6993 32.1289 31.6993 32.1289C31.6993 32.1289 31.5864 33.4613 30.6268 33.693C29.6672 33.9247 28.0866 32.882 27.8044 32.6502C27.5786 32.4765 23.5708 29.8696 22.1032 28.5951C21.708 28.2475 21.2565 27.5524 22.1596 26.7413C24.1917 24.8296 26.619 22.4545 28.0866 20.9483C28.764 20.2531 29.4413 18.631 26.619 20.6006C22.6112 23.4393 18.6599 26.1041 18.6599 26.1041C18.6599 26.1041 17.7567 26.6834 16.0633 26.162C14.3698 25.6407 12.3941 24.9455 12.3941 24.9455C12.3941 24.9455 11.0395 24.0765 13.3538 23.1496Z" fill="#45651C"/>
</svg>
