<svg width="48" height="48" viewBox="0 0 48 48" fill="none" xmlns="http://www.w3.org/2000/svg">
<path fill-rule="evenodd" clip-rule="evenodd" d="M29.1209 20.67C30.7285 21.8129 32.6538 22.4235 34.6262 22.4161V18.507C34.2384 18.508 33.8517 18.4665 33.473 18.3832V21.4974C31.4961 21.5009 29.5681 20.8833 27.9612 19.7318V27.7715C27.9563 29.0908 27.5946 30.3841 26.9142 31.5144C26.2339 32.6447 25.2603 33.5698 24.0968 34.1916C22.9333 34.8134 21.6232 35.1088 20.3054 35.0464C18.9877 34.984 17.7113 34.5661 16.6118 33.8371C17.6289 34.8661 18.9284 35.5702 20.3458 35.8602C21.7633 36.1502 23.2349 36.013 24.5744 35.4661C25.9138 34.9191 27.0609 33.987 27.8702 32.7878C28.6796 31.5885 29.1148 30.176 29.1209 28.7292V20.67ZM30.5477 16.6827C29.7302 15.7966 29.2286 14.6651 29.1209 13.4642V12.9561H28.0264C28.1617 13.7194 28.4561 14.4456 28.8905 15.0877C29.3249 15.7297 29.8895 16.2732 30.5477 16.6827ZM19.1462 30.7424C18.7668 30.2463 18.5344 29.6537 18.4752 29.032C18.4161 28.4103 18.5326 27.7845 18.8117 27.2257C19.0907 26.667 19.5209 26.1979 20.0535 25.8716C20.586 25.5454 21.1994 25.3752 21.8239 25.3804C22.1687 25.3803 22.5115 25.4331 22.8403 25.5368V21.4974C22.4559 21.4465 22.0683 21.4247 21.6806 21.4323V24.5726C20.88 24.3195 20.0134 24.377 19.2533 24.7338C18.4931 25.0905 17.8951 25.7203 17.5782 26.4979C17.2612 27.2754 17.2486 28.1438 17.5428 28.9303C17.8369 29.7168 18.4163 30.3637 19.1658 30.7424H19.1462Z" fill="#BEEAE0"/>
<path fill-rule="evenodd" clip-rule="evenodd" d="M27.9607 19.7058C29.5676 20.8573 31.4957 21.4749 33.4725 21.4714V18.3571C32.3462 18.119 31.323 17.5333 30.5472 16.6827C29.889 16.2732 29.3244 15.7297 28.89 15.0877C28.4556 14.4456 28.1612 13.7194 28.0259 12.9561H25.1462V28.7292C25.1435 29.4274 24.9222 30.1072 24.5135 30.6732C24.1047 31.2392 23.529 31.663 22.867 31.8851C22.2051 32.1072 21.4903 32.1164 20.8228 31.9114C20.1554 31.7065 19.5689 31.2977 19.1457 30.7424C18.475 30.404 17.9379 29.8495 17.621 29.1683C17.3041 28.4872 17.2259 27.7191 17.399 26.9881C17.5722 26.2571 17.9866 25.6057 18.5754 25.1391C19.1641 24.6725 19.8929 24.4178 20.6442 24.4162C20.9889 24.4173 21.3315 24.47 21.6606 24.5726V21.4323C20.2387 21.4664 18.8577 21.915 17.6872 22.7229C16.5166 23.5308 15.6075 24.6629 15.0713 25.9802C14.5351 27.2975 14.3952 28.7428 14.6687 30.1385C14.9423 31.5342 15.6175 32.8197 16.6113 33.8371C17.7111 34.5714 18.9894 34.9935 20.3102 35.0587C21.6309 35.1238 22.9446 34.8295 24.1112 34.207C25.2779 33.5846 26.2539 32.6573 26.9352 31.524C27.6166 30.3907 27.9777 29.0938 27.9803 27.7715L27.9607 19.7058Z" fill="#45651C"/>
<path fill-rule="evenodd" clip-rule="evenodd" d="M33.4728 18.357V17.5165C32.4385 17.5209 31.4241 17.2318 30.5475 16.6826C31.3214 17.5357 32.3454 18.1218 33.4728 18.357ZM28.0262 12.9559C28.0262 12.8061 27.9806 12.6497 27.961 12.4999V11.9917H23.9868V27.7714C23.9833 28.655 23.6295 29.5011 23.0029 30.124C22.3763 30.747 21.5281 31.0959 20.6445 31.0941C20.1243 31.0967 19.6108 30.9762 19.146 30.7423C19.5693 31.2976 20.1557 31.7064 20.8232 31.9113C21.4906 32.1163 22.2054 32.1071 22.8673 31.885C23.5293 31.6629 24.105 31.2391 24.5138 30.6731C24.9226 30.1071 25.1438 29.4273 25.1465 28.7291V12.9559H28.0262ZM21.6609 21.4256V20.5331C20.0255 20.3109 18.3631 20.6492 16.9446 21.4928C15.5261 22.3364 14.4351 23.6355 13.8495 25.1786C13.2639 26.7216 13.2182 28.4174 13.7197 29.9897C14.2213 31.5621 15.2407 32.9182 16.6116 33.837C15.6253 32.8172 14.9573 31.5323 14.6893 30.1391C14.4214 28.7459 14.5649 27.3048 15.1025 25.9919C15.6401 24.679 16.5485 23.5511 17.7166 22.7459C18.8848 21.9408 20.2621 21.4934 21.6804 21.4582L21.6609 21.4256Z" fill="#45651C"/>
</svg>
