<svg width="64" height="64" viewBox="0 0 64 64" fill="none" xmlns="http://www.w3.org/2000/svg">
<path d="M32.0002 58.1037C46.4169 58.1037 58.1039 46.4167 58.1039 32C58.1039 17.5833 46.4169 5.89627 32.0002 5.89627C17.5835 5.89627 5.89648 17.5833 5.89648 32C5.89648 46.4167 17.5835 58.1037 32.0002 58.1037Z" fill="black"/>
<path d="M32.0002 58.1037C46.4169 58.1037 58.1039 46.4167 58.1039 32C58.1039 17.5833 46.4169 5.89627 32.0002 5.89627C17.5835 5.89627 5.89648 17.5833 5.89648 32C5.89648 46.4167 17.5835 58.1037 32.0002 58.1037Z" fill="url(#paint0_linear_106_21110)"/>
<path d="M28.6822 41.5551L20.5845 33.4574L23.4993 30.5426L28.6822 35.7255L40.5055 23.9023L43.4203 26.817L28.6822 41.5551Z" fill="white"/>
<defs>
<linearGradient id="paint0_linear_106_21110" x1="21.0149" y1="-99.0624" x2="117.309" y2="-68.4666" gradientUnits="userSpaceOnUse">
<stop stop-color="#36CBB9"/>
<stop offset="1" stop-color="#A7D545"/>
</linearGradient>
</defs>
</svg>
