<svg width="56" height="56" viewBox="0 0 56 56" fill="none" xmlns="http://www.w3.org/2000/svg">
<rect width="56" height="56" rx="28" fill="#45651C"/>
<path d="M27.761 15.4747V17.5174H29.8038L27.761 15.4747ZM19.1246 38.8492C18.9992 38.8506 18.8806 38.8012 18.7912 38.7132C18.7032 38.6252 18.6539 38.5065 18.6539 38.3812C18.6539 38.2572 18.7032 38.1372 18.7912 38.0492C18.8806 37.9612 18.9992 37.9118 19.1246 37.9132H38.2176C38.4763 37.9132 38.6843 38.1239 38.6843 38.3812C38.6843 38.6385 38.4763 38.8492 38.2176 38.8492H19.1246ZM19.1246 36.0104V36.0118C18.9992 36.0118 18.8806 35.9638 18.7912 35.8758C18.7032 35.7878 18.6539 35.6677 18.6539 35.5424C18.6539 35.4184 18.7032 35.2984 18.7912 35.2104C18.8806 35.1224 18.9992 35.0744 19.1246 35.0744H38.2176C38.4763 35.0757 38.6843 35.2851 38.6843 35.5424C38.6843 35.8011 38.4763 36.0104 38.2176 36.0118L19.1246 36.0104ZM33.7333 33.1703V33.1716C33.4759 33.1703 33.2679 32.961 33.2679 32.7036C33.2679 32.4449 33.4759 32.2356 33.7333 32.2343H38.2176C38.4763 32.2356 38.6843 32.4449 38.6843 32.7036C38.6843 32.961 38.4763 33.1703 38.2176 33.1716L33.7333 33.1703ZM33.7333 30.3315V30.3328C33.4746 30.3328 33.2653 30.1235 33.2653 29.8648C33.2653 29.6061 33.4746 29.3955 33.7333 29.3955H38.2176C38.4763 29.3955 38.6869 29.6061 38.6869 29.8648C38.6869 30.1235 38.4763 30.3328 38.2176 30.3328L33.7333 30.3315ZM33.7333 27.4914V27.4927C33.4759 27.4927 33.2679 27.282 33.2679 27.0247C33.2679 26.7673 33.4759 26.558 33.7333 26.5567H38.2176C38.4763 26.558 38.6843 26.7673 38.6843 27.0247C38.6843 27.282 38.4763 27.4927 38.2176 27.4927L33.7333 27.4914ZM33.7333 24.6526V24.6553C33.4759 24.6539 33.2666 24.4446 33.2666 24.1859C33.2666 23.9272 33.4759 23.7179 33.7333 23.7165H38.2176C38.4763 23.7179 38.6856 23.9272 38.6856 24.1859C38.6856 24.4446 38.4763 24.6539 38.2176 24.6553L33.7333 24.6526ZM33.7333 21.8125V21.8151C33.4746 21.8151 33.2653 21.6058 33.2653 21.3471C33.2653 21.0871 33.4746 20.8777 33.7333 20.8777H38.2176C38.4763 20.8777 38.6869 21.0871 38.6869 21.3471C38.6869 21.6058 38.4763 21.8151 38.2176 21.8151L33.7333 21.8125ZM33.7333 18.9737V18.9763C33.4759 18.975 33.2666 18.7656 33.2666 18.507C33.2666 18.2483 33.4759 18.0389 33.7333 18.0376H38.2176C38.4763 18.0389 38.6856 18.2483 38.6856 18.507C38.6856 18.7656 38.4763 18.975 38.2176 18.9763L33.7333 18.9737ZM18.5501 30.4874C18.2914 30.4874 18.0807 30.2767 18.0807 30.018C18.0807 29.758 18.2914 29.5487 18.5501 29.5487H27.6999C27.9586 29.5487 28.1693 29.758 28.1693 30.018C28.1693 30.2767 27.9586 30.4874 27.6999 30.4874H18.5501ZM18.5501 27.3339C18.2914 27.3339 18.0807 27.1232 18.0807 26.8645C18.0807 26.6045 18.2914 26.3952 18.5501 26.3952H27.6999C27.9586 26.3952 28.1693 26.6045 28.1693 26.8645C28.1693 27.1232 27.9586 27.3339 27.6999 27.3339H18.5501ZM18.5501 24.1804C18.2914 24.1804 18.0821 23.9697 18.0821 23.711C18.0821 23.4524 18.2914 23.243 18.5501 23.243H27.6999C27.9586 23.243 28.168 23.4524 28.168 23.711C28.168 23.9697 27.9586 24.1804 27.6999 24.1804H18.5501ZM22.1984 21.0269C22.0744 21.0269 21.9544 20.9776 21.8664 20.8896C21.7771 20.8016 21.7277 20.6829 21.7277 20.5576C21.7277 20.4335 21.7771 20.3135 21.8664 20.2255C21.9544 20.1375 22.0744 20.0882 22.1984 20.0895H27.6999C27.824 20.0882 27.944 20.1375 28.032 20.2255C28.1213 20.3135 28.1706 20.4335 28.1706 20.5576C28.1706 20.6829 28.1213 20.8016 28.032 20.8896C27.944 20.9776 27.824 21.0269 27.6999 21.0269H22.1984ZM16.1248 40.8453V33.5664C15.3647 33.3277 14.8474 32.6237 14.8461 31.8263V15.6962C14.8474 14.6908 15.6621 13.8748 16.6675 13.8748H16.7688C16.9915 12.7827 17.9515 12 19.0649 12C20.1783 12 21.1384 12.7827 21.3611 13.8748H27.2947C27.4201 13.8734 27.5401 13.9241 27.6267 14.0148L28.4241 14.8121H40.6847C40.9434 14.8108 41.154 15.0201 41.154 15.2788V41.3145C41.154 42.7973 39.9513 44 38.4686 44H17.5302C16.8182 44 16.1355 43.7173 15.6315 43.2133C15.1288 42.7093 14.8461 42.0266 14.8461 41.3145C14.8461 41.0559 15.0554 40.8452 15.3141 40.8452L16.1248 40.8453ZM17.0622 33.649V40.8453H36.2511C36.5111 40.8453 36.7205 41.0546 36.7218 41.3147C36.7205 41.7787 36.9031 42.224 37.2312 42.552C37.5592 42.8814 38.0045 43.0654 38.4686 43.0654C38.9326 43.0654 39.3766 42.8814 39.7046 42.552C40.0326 42.224 40.2166 41.7787 40.2153 41.3147V15.7483H29.3628L31.2695 17.655C31.3562 17.743 31.4042 17.8617 31.4042 17.9844V31.8264C31.4029 32.8331 30.5882 33.6478 29.5828 33.6478L17.0622 33.649ZM35.8244 41.784H15.8477C16.0583 42.5387 16.7464 43.0614 17.5304 43.0614H36.4312C36.1179 42.6974 35.9084 42.256 35.8244 41.784ZM17.6582 18.7283C17.6568 18.9189 17.7715 19.0896 17.9462 19.1629C18.1222 19.2363 18.3235 19.1963 18.4582 19.0616C18.5462 18.9736 18.5955 18.8549 18.5955 18.7309V16.0908C18.5955 15.8308 18.8049 15.6214 19.0649 15.6214C19.3236 15.6214 19.5343 15.8308 19.5343 16.0908V18.7309C19.5343 19.5069 18.9035 20.1376 18.1275 20.1376C17.3502 20.1376 16.7208 19.5069 16.7208 18.7309V14.8122C16.4768 14.7989 16.2394 14.8856 16.0621 15.0522C15.8847 15.2202 15.7847 15.4523 15.7834 15.6963V31.8264C15.7847 32.3144 16.1794 32.7091 16.6674 32.7118H29.5827C30.0707 32.7104 30.4667 32.3144 30.4667 31.8264V18.4537H27.2946C27.0346 18.4537 26.8252 18.2443 26.8239 17.9843V14.8122H17.658L17.6582 18.7283ZM31.4043 17.9722L31.4042 17.9844L31.4043 17.9722ZM20.3917 13.8747C20.1917 13.3134 19.661 12.9374 19.065 12.9374C18.4689 12.9374 17.9369 13.3134 17.7369 13.8747H20.3917Z" fill="white"/>
</svg>
