<svg width="56" height="56" viewBox="0 0 56 56" fill="none" xmlns="http://www.w3.org/2000/svg">
<rect width="56" height="56" rx="28" fill="#45651C"/>
<path d="M17.1117 25.2337H17.2855C17.389 25.2337 17.4883 25.1926 17.5615 25.1194C17.6347 25.0462 17.6758 24.947 17.6758 24.8435C17.6758 24.74 17.6347 24.6407 17.5615 24.5675C17.4883 24.4943 17.389 24.4532 17.2855 24.4532H17.1117C17.0082 24.4532 16.9089 24.4943 16.8357 24.5675C16.7626 24.6407 16.7214 24.74 16.7214 24.8435C16.7214 24.947 16.7626 25.0462 16.8357 25.1194C16.9089 25.1926 17.0082 25.2337 17.1117 25.2337Z" fill="white" stroke="white" stroke-width="0.3"/>
<path d="M20.3356 24.4532H19.0215C18.918 24.4532 18.8187 24.4943 18.7455 24.5675C18.6723 24.6407 18.6312 24.74 18.6312 24.8435C18.6312 24.947 18.6723 25.0462 18.7455 25.1194C18.8187 25.1926 18.918 25.2337 19.0215 25.2337H20.3356C20.4391 25.2337 20.5384 25.1926 20.6116 25.1194C20.6848 25.0462 20.7259 24.947 20.7259 24.8435C20.7259 24.74 20.6848 24.6407 20.6116 24.5675C20.5384 24.4943 20.4391 24.4532 20.3356 24.4532Z" fill="white" stroke="white" stroke-width="0.3"/>
<path d="M22.0996 25.2337H31.5199C31.6234 25.2337 31.7227 25.1926 31.7959 25.1194C31.869 25.0462 31.9102 24.947 31.9102 24.8435C31.9102 24.74 31.869 24.6407 31.7959 24.5675C31.7227 24.4943 31.6234 24.4532 31.5199 24.4532H22.0996C21.9961 24.4532 21.8968 24.4943 21.8237 24.5675C21.7505 24.6407 21.7094 24.74 21.7094 24.8435C21.7094 24.947 21.7505 25.0462 21.8237 25.1194C21.8968 25.1926 21.9961 25.2337 22.0996 25.2337Z" fill="white" stroke="white" stroke-width="0.3"/>
<path d="M17.1117 21.5274H17.2855C17.389 21.5274 17.4883 21.4862 17.5615 21.4131C17.6347 21.3399 17.6758 21.2406 17.6758 21.1371C17.6758 21.0336 17.6347 20.9343 17.5615 20.8612C17.4883 20.788 17.389 20.7469 17.2855 20.7469H17.1117C17.0082 20.7469 16.9089 20.788 16.8357 20.8612C16.7626 20.9343 16.7214 21.0336 16.7214 21.1371C16.7214 21.2406 16.7626 21.3399 16.8357 21.4131C16.9089 21.4862 17.0082 21.5274 17.1117 21.5274Z" fill="white" stroke="white" stroke-width="0.3"/>
<path d="M20.3356 20.7469H19.0215C18.918 20.7469 18.8187 20.788 18.7455 20.8612C18.6723 20.9343 18.6312 21.0336 18.6312 21.1371C18.6312 21.2406 18.6723 21.3399 18.7455 21.4131C18.8187 21.4862 18.918 21.5274 19.0215 21.5274H20.3356C20.4391 21.5274 20.5384 21.4862 20.6116 21.4131C20.6848 21.3399 20.7259 21.2406 20.7259 21.1371C20.7259 21.0336 20.6848 20.9343 20.6116 20.8612C20.5384 20.788 20.4391 20.7469 20.3356 20.7469Z" fill="white" stroke="white" stroke-width="0.3"/>
<path d="M22.0996 21.5274H31.5199C31.6234 21.5274 31.7227 21.4862 31.7959 21.4131C31.869 21.3399 31.9102 21.2406 31.9102 21.1371C31.9102 21.0336 31.869 20.9343 31.7959 20.8612C31.7227 20.788 31.6234 20.7469 31.5199 20.7469H22.0996C21.9961 20.7469 21.8968 20.788 21.8237 20.8612C21.7505 20.9343 21.7094 21.0336 21.7094 21.1371C21.7094 21.2406 21.7505 21.3399 21.8237 21.4131C21.8968 21.4862 21.9961 21.5274 22.0996 21.5274Z" fill="white" stroke="white" stroke-width="0.3"/>
<path d="M17.1117 17.8212H17.2855C17.389 17.8212 17.4883 17.7801 17.5615 17.7069C17.6347 17.6338 17.6758 17.5345 17.6758 17.431C17.6758 17.3275 17.6347 17.2282 17.5615 17.155C17.4883 17.0819 17.389 17.0407 17.2855 17.0407H17.1117C17.0082 17.0407 16.9089 17.0819 16.8357 17.155C16.7626 17.2282 16.7214 17.3275 16.7214 17.431C16.7214 17.5345 16.7626 17.6338 16.8357 17.7069C16.9089 17.7801 17.0082 17.8212 17.1117 17.8212Z" fill="white" stroke="white" stroke-width="0.3"/>
<path d="M20.3356 17.0407H19.0215C18.918 17.0407 18.8187 17.0819 18.7455 17.155C18.6723 17.2282 18.6312 17.3275 18.6312 17.431C18.6312 17.5345 18.6723 17.6338 18.7455 17.7069C18.8187 17.7801 18.918 17.8212 19.0215 17.8212H20.3356C20.4391 17.8212 20.5384 17.7801 20.6116 17.7069C20.6848 17.6338 20.7259 17.5345 20.7259 17.431C20.7259 17.3275 20.6848 17.2282 20.6116 17.155C20.5384 17.0819 20.4391 17.0407 20.3356 17.0407Z" fill="white" stroke="white" stroke-width="0.3"/>
<path d="M22.0996 17.8212H31.5199C31.6234 17.8212 31.7227 17.7801 31.7959 17.7069C31.869 17.6338 31.9102 17.5345 31.9102 17.431C31.9102 17.3275 31.869 17.2282 31.7959 17.155C31.7227 17.0819 31.6234 17.0407 31.5199 17.0407H22.0996C21.9961 17.0407 21.8968 17.0819 21.8237 17.155C21.7505 17.2282 21.7094 17.3275 21.7094 17.431C21.7094 17.5345 21.7505 17.6338 21.8237 17.7069C21.8968 17.7801 21.9961 17.8212 22.0996 17.8212Z" fill="white" stroke="white" stroke-width="0.3"/>
<path d="M17.1117 28.94H17.2855C17.389 28.94 17.4883 28.8989 17.5615 28.8257C17.6347 28.7525 17.6758 28.6532 17.6758 28.5497C17.6758 28.4462 17.6347 28.347 17.5615 28.2738C17.4883 28.2006 17.389 28.1595 17.2855 28.1595H17.1117C17.0082 28.1595 16.9089 28.2006 16.8357 28.2738C16.7626 28.347 16.7214 28.4462 16.7214 28.5497C16.7214 28.6532 16.7626 28.7525 16.8357 28.8257C16.9089 28.8989 17.0082 28.94 17.1117 28.94Z" fill="white" stroke="white" stroke-width="0.3"/>
<path d="M20.3356 28.1595H19.0215C18.918 28.1595 18.8187 28.2006 18.7455 28.2738C18.6723 28.347 18.6312 28.4462 18.6312 28.5497C18.6312 28.6532 18.6723 28.7525 18.7455 28.8257C18.8187 28.8989 18.918 28.94 19.0215 28.94H20.3356C20.4391 28.94 20.5384 28.8989 20.6116 28.8257C20.6848 28.7525 20.7259 28.6532 20.7259 28.5497C20.7259 28.4462 20.6848 28.347 20.6116 28.2738C20.5384 28.2006 20.4391 28.1595 20.3356 28.1595Z" fill="white" stroke="white" stroke-width="0.3"/>
<path d="M22.0996 28.94H27.8136C27.9171 28.94 28.0164 28.8989 28.0896 28.8257C28.1628 28.7525 28.2039 28.6532 28.2039 28.5497C28.2039 28.4462 28.1628 28.347 28.0896 28.2738C28.0164 28.2006 27.9171 28.1595 27.8136 28.1595H22.0996C21.9961 28.1595 21.8968 28.2006 21.8237 28.2738C21.7505 28.347 21.7094 28.4462 21.7094 28.5497C21.7094 28.6532 21.7505 28.7525 21.8237 28.8257C21.8968 28.8989 21.9961 28.94 22.0996 28.94Z" fill="white" stroke="white" stroke-width="0.3"/>
<path d="M18.217 32.9791C18.4066 32.9793 18.5883 33.0547 18.7223 33.1887C18.8563 33.3228 18.9317 33.5045 18.9318 33.6941C18.9318 33.7976 18.9729 33.8968 19.0461 33.97C19.1193 34.0432 19.2186 34.0843 19.3221 34.0843C19.4256 34.0843 19.5248 34.0432 19.598 33.97C19.6712 33.8968 19.7123 33.7976 19.7123 33.6941C19.7119 33.3656 19.6035 33.0464 19.4038 32.7856C19.2041 32.5247 18.9242 32.3368 18.6073 32.2507V31.9817C18.6073 31.8782 18.5661 31.779 18.493 31.7058C18.4198 31.6326 18.3205 31.5915 18.217 31.5915C18.1135 31.5915 18.0142 31.6326 17.9411 31.7058C17.8679 31.779 17.8268 31.8782 17.8268 31.9817V32.2507C17.4768 32.3452 17.1731 32.5637 16.9722 32.8654C16.7713 33.1672 16.6869 33.5316 16.7346 33.891C16.7823 34.2503 16.9589 34.5801 17.2316 34.8189C17.5043 35.0578 17.8545 35.1894 18.217 35.1894C18.4065 35.1883 18.5887 35.2626 18.7235 35.3959C18.8583 35.5292 18.9346 35.7106 18.9356 35.9001C18.9367 36.0897 18.8624 36.2719 18.7291 36.4066C18.5958 36.5414 18.4144 36.6177 18.2249 36.6187C18.2222 36.6187 18.2197 36.6183 18.217 36.6183C18.2143 36.6183 18.2118 36.6183 18.2091 36.6187C18.021 36.6166 17.8413 36.5404 17.7089 36.4066C17.5765 36.2729 17.5022 36.0924 17.5019 35.9042C17.5019 35.8007 17.4608 35.7015 17.3876 35.6283C17.3144 35.5551 17.2152 35.514 17.1117 35.514C17.0082 35.514 16.9089 35.5551 16.8357 35.6283C16.7626 35.7015 16.7214 35.8007 16.7214 35.9042C16.7219 36.2327 16.8303 36.552 17.03 36.8128C17.2297 37.0736 17.5096 37.2615 17.8266 37.3477V37.6669C17.8266 37.7704 17.8677 37.8696 17.9409 37.9428C18.014 38.016 18.1133 38.0571 18.2168 38.0571C18.3203 38.0571 18.4196 38.016 18.4928 37.9428C18.5659 37.8696 18.6071 37.7704 18.6071 37.6669V37.3477C18.957 37.253 19.2606 37.0345 19.4615 36.7328C19.6623 36.4311 19.7468 36.0667 19.699 35.7073C19.6513 35.348 19.4747 35.0183 19.2021 34.7794C18.9294 34.5406 18.5793 34.4089 18.2168 34.4089C18.0272 34.4089 17.8454 34.3336 17.7113 34.1995C17.5773 34.0654 17.5019 33.8836 17.5019 33.694C17.5019 33.5044 17.5773 33.3226 17.7113 33.1885C17.8454 33.0544 18.0272 32.9791 18.2168 32.9791H18.217Z" fill="white" stroke="white" stroke-width="0.3"/>
<path d="M25.0709 35.6249H21.7721C21.6686 35.6249 21.5693 35.666 21.4961 35.7392C21.423 35.8124 21.3818 35.9117 21.3818 36.0152C21.3818 36.1187 21.423 36.2179 21.4961 36.2911C21.5693 36.3643 21.6686 36.4054 21.7721 36.4054H25.0709C25.1744 36.4054 25.2736 36.3643 25.3468 36.2911C25.42 36.2179 25.4611 36.1187 25.4611 36.0152C25.4611 35.9117 25.42 35.8124 25.3468 35.7392C25.2736 35.666 25.1744 35.6249 25.0709 35.6249Z" fill="white" stroke="white" stroke-width="0.3"/>
<path d="M34.4352 28.4072V22.7941H39.5548C39.6583 22.7941 39.7576 22.7529 39.8307 22.6798C39.9039 22.6066 39.945 22.5073 39.945 22.4038V15.1452C39.9441 14.3374 39.6328 13.5609 39.0755 12.9762C38.5182 12.3915 37.7575 12.0433 36.9507 12.0036V12H17.7495C16.8075 12.0011 15.9044 12.3757 15.2384 13.0418C14.5723 13.7079 14.1976 14.611 14.1965 15.553V41.1512C14.1965 41.2247 14.2173 41.2967 14.2564 41.3589C14.2955 41.4212 14.3515 41.4711 14.4177 41.5029C14.484 41.5348 14.5579 41.5473 14.6309 41.539C14.7039 41.5306 14.7732 41.5019 14.8306 41.4559L17.0195 39.7051L19.2084 41.4559C19.2776 41.5114 19.3636 41.5416 19.4523 41.5416C19.541 41.5416 19.627 41.5114 19.6962 41.4559L21.8847 39.7052L24.0732 41.4559C24.1424 41.5114 24.2284 41.5416 24.3171 41.5416C24.4058 41.5416 24.4918 41.5114 24.561 41.4559L26.9521 39.5431C27.5429 40.7878 28.4528 41.8539 29.5892 42.633C30.7256 43.412 32.048 43.8763 33.422 43.9785C34.7961 44.0807 36.1726 43.8173 37.4118 43.215C38.651 42.6126 39.7086 41.6929 40.4771 40.5493C41.2455 39.4057 41.6975 38.079 41.7869 36.7041C41.8764 35.3292 41.6002 33.9551 40.9864 32.7216C40.3726 31.4881 39.4431 30.4391 38.2924 29.6812C37.1417 28.9234 35.8108 28.4838 34.4352 28.4072ZM39.1645 15.1452V22.0136H34.4352V15.1452C34.4384 14.5202 34.689 13.9219 35.1321 13.4811C35.5752 13.0403 36.1748 12.7928 36.7999 12.7928C37.4249 12.7928 38.0245 13.0403 38.4676 13.4811C38.9107 13.9219 39.1613 14.5202 39.1645 15.1452ZM26.4972 38.9069L24.3166 40.6515L22.1282 38.9007C22.059 38.8452 21.9729 38.815 21.8843 38.815C21.7956 38.815 21.7096 38.8452 21.6404 38.9007L19.4518 40.6515L17.2632 38.9006C17.194 38.8452 17.108 38.815 17.0193 38.815C16.9307 38.815 16.8447 38.8452 16.7754 38.9006L14.977 40.3393V15.553C14.9779 14.8179 15.2702 14.1132 15.79 13.5934C16.3097 13.0737 17.0145 12.7813 17.7495 12.7805H34.7295C34.392 13.0751 34.1214 13.4385 33.936 13.8464C33.7505 14.2543 33.6546 14.6971 33.6547 15.1452V28.4029C32.4382 28.4566 31.2512 28.7944 30.1886 29.3891C29.1261 29.9838 28.2175 30.819 27.5355 31.8277C26.8536 32.8365 26.4172 33.9909 26.2613 35.1985C26.1054 36.4062 26.2343 37.6335 26.6377 38.7824L26.4972 38.9069ZM34 43.22C32.6111 43.22 31.2534 42.8082 30.0986 42.0365C28.9437 41.2649 28.0437 40.1682 27.5122 38.885C26.9807 37.6018 26.8416 36.1899 27.1125 34.8277C27.3835 33.4655 28.0523 32.2142 29.0344 31.2321C30.0165 30.25 31.2678 29.5812 32.63 29.3102C33.9922 29.0393 35.4041 29.1783 36.6873 29.7098C37.9705 30.2413 39.0672 31.1414 39.8388 32.2962C40.6105 33.4511 41.0223 34.8088 41.0223 36.1977C41.0202 38.0595 40.2797 39.8444 38.9632 41.1609C37.6467 42.4774 35.8618 43.2179 34 43.22Z" fill="white" stroke="white" stroke-width="0.3"/>
<path d="M33.7928 30.4842L30.07 33.6752C30.0497 33.6895 30.0309 33.7057 30.0137 33.7235L28.8679 34.7057C28.8282 34.7388 28.7955 34.7795 28.7717 34.8253C28.7478 34.8712 28.7333 34.9213 28.729 34.9728C28.7247 35.0243 28.7307 35.0761 28.7466 35.1253C28.7625 35.1745 28.788 35.22 28.8216 35.2593C28.8552 35.2985 28.8963 35.3307 28.9425 35.3539C28.9886 35.3771 29.0389 35.391 29.0905 35.3946C29.1421 35.3982 29.1938 35.3916 29.2428 35.375C29.2917 35.3585 29.3369 35.3324 29.3757 35.2983L29.9041 34.8454V40.314C29.9041 40.4175 29.9452 40.5167 30.0184 40.5899C30.0916 40.6631 30.1909 40.7042 30.2944 40.7042H37.7054C37.8089 40.7042 37.9082 40.6631 37.9814 40.5899C38.0546 40.5167 38.0957 40.4175 38.0957 40.314V34.8365L38.6213 35.2958C38.6599 35.3295 38.7047 35.3553 38.7533 35.3718C38.8018 35.3882 38.8532 35.3948 38.9043 35.3914C38.9555 35.388 39.0054 35.3745 39.0514 35.3518C39.0973 35.329 39.1383 35.2974 39.172 35.2589C39.2058 35.2203 39.2316 35.1754 39.248 35.1268C39.2644 35.0783 39.2711 35.027 39.2676 34.9758C39.2642 34.9247 39.2507 34.8747 39.228 34.8288C39.2053 34.7828 39.1737 34.7418 39.1351 34.7081L34.3039 30.4869C34.2332 30.4251 34.1427 30.3908 34.0489 30.3903C33.955 30.3898 33.8641 30.4231 33.7928 30.4842ZM37.3152 39.9237H30.6846V34.1764L34.0444 31.2966L37.3152 34.1546V39.9237Z" fill="white" stroke="white" stroke-width="0.3"/>
</svg>
