<svg width="56" height="56" viewBox="0 0 56 56" fill="none" xmlns="http://www.w3.org/2000/svg">
<rect width="56" height="56" rx="28" fill="#45651C"/>
<path d="M29.3738 35.9805H26.1265C25.8506 35.9805 25.6269 35.7568 25.6269 35.4809V34.1163C24.3774 33.8532 23.1754 33.3563 22.1086 32.6618L21.1317 33.6289C20.9362 33.8224 20.6212 33.8215 20.4268 33.627L18.1053 31.3032C17.9106 31.1083 17.9104 30.7926 18.1049 30.5975L19.0711 29.6279C18.3777 28.5622 17.8815 27.3614 17.6186 26.1135H16.2595C15.9836 26.1135 15.7599 25.8898 15.7599 25.6139V22.3666C15.7599 22.0907 15.9836 21.867 16.2595 21.867H17.6186C17.8815 20.6198 18.3784 19.4188 19.0731 18.3518L18.107 17.3776C17.9131 17.1822 17.9139 16.8669 18.1087 16.6723L20.433 14.3509C20.6279 14.1562 20.9434 14.156 21.1385 14.3503L22.1096 15.3169C23.1753 14.6236 24.3769 14.1273 25.6269 13.8642V12.4996C25.6269 12.2237 25.8506 12 26.1265 12H29.3738C29.6497 12 29.8734 12.2237 29.8734 12.4996V13.8642C31.1187 14.1269 32.3187 14.6236 33.3854 15.3181L34.3568 14.3523C34.5521 14.1582 34.8678 14.1587 35.0624 14.3535L37.3839 16.6772C37.5786 16.8721 37.5788 17.1878 37.3844 17.3829L36.4181 18.3526C37.1116 19.4182 37.6078 20.6189 37.8707 21.8669H39.2408C39.5167 21.8669 39.7404 22.0906 39.7404 22.3665V25.6139C39.7404 25.8898 39.5167 26.1135 39.2408 26.1135H37.8707C37.6077 27.3611 37.1111 28.562 36.4169 29.6285L37.3836 30.6027C37.5774 30.798 37.5768 31.1134 37.3821 31.308L35.0591 33.6295C34.8642 33.8243 34.5482 33.8244 34.3531 33.6298L33.3849 32.6638C32.319 33.3574 31.1195 33.8536 29.8734 34.1163V35.4809C29.8734 35.7568 29.6497 35.9805 29.3738 35.9805ZM26.6261 34.9813H28.8742V33.7024C28.8742 33.4584 29.0506 33.25 29.2913 33.2097C30.6769 32.9775 32.0131 32.4249 33.1554 31.6114C33.3541 31.4701 33.6255 31.4926 33.7981 31.6647L34.7056 32.5701L36.3236 30.9531L35.4174 30.0399C35.2461 29.8672 35.224 29.5963 35.3651 29.3982C36.1787 28.2556 36.7316 26.9184 36.964 25.5314C37.0044 25.2907 37.2126 25.1143 37.4567 25.1143H38.7412V22.8662H37.4568C37.2128 22.8662 37.0044 22.6898 36.9641 22.4491C36.7315 21.061 36.1789 19.7239 35.3659 18.5823C35.2246 18.3838 35.247 18.1124 35.419 17.9398L36.3248 17.0308L34.7078 15.4123L33.7975 16.3174C33.6248 16.4891 33.3537 16.5113 33.1554 16.3701C32.0118 15.5557 30.6756 15.0027 29.2913 14.7707C29.0506 14.7304 28.8742 14.5221 28.8742 14.278V12.9992H26.6261V14.2781C26.6261 14.5221 26.4497 14.7305 26.209 14.7708C24.8186 15.0037 23.4805 15.5564 22.3393 16.369C22.1409 16.5102 21.8696 16.4879 21.6971 16.3161L20.7867 15.4099L19.167 17.0275L20.0726 17.9407C20.2438 18.1133 20.2658 18.3842 20.1248 18.5823C19.3105 19.7257 18.7574 21.0628 18.5251 22.4491C18.4847 22.6898 18.2764 22.8662 18.0324 22.8662H16.7591V25.1143H18.0324C18.2765 25.1143 18.4848 25.2907 18.5251 25.5314C18.7577 26.9194 19.3104 28.2566 20.1233 29.3982C20.2647 29.5967 20.2422 29.8681 20.0703 30.0406L19.1644 30.9497L20.7821 32.569L21.698 31.6623C21.8707 31.4913 22.1414 31.4695 22.3393 31.6104C23.4818 32.424 24.8199 32.977 26.209 33.2097C26.4496 33.25 26.626 33.4583 26.626 33.7024V34.9813H26.6261Z" fill="white"/>
<path d="M27.7447 31.9837C23.337 31.9837 19.7512 28.3979 19.7512 23.9902C19.7512 19.5826 23.337 15.9967 27.7447 15.9967C32.1523 15.9967 35.7382 19.5826 35.7382 23.9902C35.7382 28.3979 32.1523 31.9837 27.7447 31.9837ZM27.7447 16.9959C23.888 16.9959 20.7503 20.1336 20.7503 23.9902C20.7503 27.8469 23.888 30.9846 27.7447 30.9846C31.6013 30.9846 34.739 27.8469 34.739 23.9902C34.739 20.1336 31.6013 16.9959 27.7447 16.9959Z" fill="white"/>
<path d="M31.2473 31.1095C30.9714 31.1095 30.7477 30.8858 30.7477 30.6099V28.4866C30.7477 27.6872 30.4354 26.9344 29.8683 26.3667C29.3019 25.8008 28.5485 25.489 27.7474 25.489C26.0961 25.489 24.7526 26.8338 24.7526 28.4866V30.6099C24.7526 30.8858 24.5289 31.1095 24.253 31.1095C23.9771 31.1095 23.7534 30.8858 23.7534 30.6099V28.4866C23.7534 26.2828 25.5451 24.4898 27.7474 24.4898C28.8152 24.4898 29.8194 24.9054 30.5749 25.6601C31.3308 26.4168 31.7469 27.4205 31.7469 28.4866V30.6099C31.7469 30.8858 31.5232 31.1095 31.2473 31.1095Z" fill="white"/>
<path d="M27.7447 25.489C26.3673 25.489 25.2467 24.3684 25.2467 22.9911C25.2467 21.6137 26.3673 20.4931 27.7447 20.4931C29.1221 20.4931 30.2426 21.6137 30.2426 22.9911C30.2426 24.3684 29.1221 25.489 27.7447 25.489ZM27.7447 21.4923C26.9182 21.4923 26.2459 22.1647 26.2459 22.9911C26.2459 23.8175 26.9182 24.4898 27.7447 24.4898C28.5711 24.4898 29.2435 23.8175 29.2435 22.9911C29.2435 22.1647 28.5711 21.4923 27.7447 21.4923Z" fill="white"/>
<path d="M29.9642 44C29.8847 44 29.8049 43.981 29.7318 43.9426L27.9944 43.0292L26.257 43.9426C26.0887 44.0311 25.8846 44.0163 25.7308 43.9046C25.577 43.7928 25.5 43.6034 25.5321 43.416L25.8639 41.4813L24.4582 40.1112C24.322 39.9785 24.2731 39.7799 24.3318 39.5991C24.3906 39.4182 24.547 39.2864 24.7351 39.2591L26.6776 38.9768L27.5464 37.2166C27.6305 37.0461 27.8042 36.9381 27.9944 36.9381C28.1845 36.9381 28.3583 37.0461 28.4424 37.2166L29.311 38.9768L31.2535 39.2591C31.4418 39.2864 31.5981 39.4183 31.6568 39.5991C31.7156 39.7799 31.6666 39.9785 31.5304 40.1112L30.1248 41.4813L30.4566 43.416C30.4888 43.6034 30.4117 43.7928 30.2578 43.9046C30.1709 43.9678 30.0678 44 29.9642 44ZM27.9944 41.9652C28.0743 41.9652 28.1541 41.9844 28.2269 42.0226L29.3007 42.5871L29.0957 41.3914C29.0679 41.2293 29.1216 41.064 29.2394 40.9492L30.1082 40.1023L28.9075 39.9279C28.7448 39.9042 28.6041 39.802 28.5314 39.6545L27.9944 38.5665L27.4575 39.6545C27.3847 39.802 27.244 39.9042 27.0814 39.9279L25.8807 40.1023L26.7495 40.9492C26.8673 41.064 26.921 41.2293 26.8932 41.3914L26.6881 42.5871L27.762 42.0226C27.8347 41.9844 27.9146 41.9652 27.9944 41.9652Z" fill="white"/>
<path d="M20.0592 41.0024C19.9797 41.0024 19.8998 40.9834 19.8267 40.945L18.414 40.2023L17.0012 40.945C16.8329 41.0336 16.6289 41.0188 16.4751 40.907C16.3213 40.7952 16.2442 40.6058 16.2764 40.4184L16.5462 38.8454L15.4033 37.7312C15.2671 37.5985 15.2181 37.3999 15.2769 37.2191C15.3356 37.0382 15.492 36.9064 15.6802 36.8791L17.2597 36.6496L17.966 35.2183C18.0502 35.0478 18.2238 34.9398 18.4141 34.9398C18.6043 34.9398 18.7779 35.0478 18.8621 35.2183L19.5684 36.6496L21.148 36.8791C21.3361 36.9064 21.4925 37.0383 21.5513 37.2191C21.61 37.3999 21.561 37.5985 21.4249 37.7312L20.2819 38.8454L20.5518 40.4184C20.5839 40.6058 20.5069 40.7952 20.353 40.907C20.2659 40.9702 20.1628 41.0024 20.0592 41.0024ZM18.414 39.1383C18.4939 39.1383 18.5737 39.1575 18.6465 39.1957L19.3958 39.5896L19.2526 38.7554C19.2248 38.5932 19.2785 38.4279 19.3963 38.3132L20.0025 37.7223L19.1648 37.6006C19.0021 37.5769 18.8614 37.4747 18.7886 37.3273L18.414 36.5683L18.0394 37.3273C17.9666 37.4747 17.8259 37.5769 17.6632 37.6006L16.8255 37.7223L17.4317 38.3132C17.5494 38.4279 17.6032 38.5932 17.5754 38.7554L17.4322 39.5896L18.1815 39.1957C18.2543 39.1575 18.3341 39.1383 18.414 39.1383Z" fill="white"/>
<path d="M39.2311 41.0024C39.1516 41.0024 39.0717 40.9834 38.9986 40.945L37.5859 40.2023L36.1732 40.945C36.0049 41.0336 35.8008 41.0187 35.647 40.907C35.4932 40.7953 35.4162 40.6059 35.4483 40.4184L35.718 38.8454L34.5751 37.7312C34.4389 37.5984 34.3899 37.3999 34.4487 37.2191C34.5075 37.0382 34.6638 36.9064 34.852 36.8791L36.4315 36.6496L37.1379 35.2183C37.2221 35.0478 37.3957 34.9398 37.5859 34.9398C37.7761 34.9398 37.9497 35.0478 38.0339 35.2183L38.7403 36.6496L40.3198 36.8791C40.508 36.9064 40.6643 37.0383 40.7231 37.2191C40.7819 37.3999 40.7328 37.5984 40.5967 37.7312L39.4538 38.8454L39.7235 40.4184C39.7557 40.6059 39.6786 40.7953 39.5248 40.907C39.4377 40.9702 39.3347 41.0024 39.2311 41.0024ZM37.5859 39.1383C37.6657 39.1383 37.7456 39.1575 37.8184 39.1957L38.5676 39.5896L38.4245 38.7554C38.3967 38.5932 38.4504 38.4279 38.5682 38.3132L39.1744 37.7223L38.3367 37.6006C38.174 37.5769 38.0333 37.4747 37.9606 37.3273L37.5859 36.5681L37.2113 37.3272C37.1385 37.4747 36.9978 37.5769 36.8351 37.6006L35.9975 37.7222L36.6036 38.3131C36.7214 38.4279 36.7751 38.5932 36.7473 38.7553L36.6043 39.5895L37.3535 39.1956C37.4262 39.1575 37.5061 39.1383 37.5859 39.1383Z" fill="white"/>
</svg>
