<svg width="96" height="23" viewBox="0 0 96 23" fill="none" xmlns="http://www.w3.org/2000/svg">
<path d="M7.232 18.288C6.272 18.288 5.36 18.192 4.496 18C3.632 17.808 2.864 17.504 2.192 17.088C1.536 16.656 1.016 16.12 0.632 15.48C0.264 14.824 0.08 14.032 0.08 13.104C0.08 13.024 0.08 12.944 0.08 12.864C0.08 12.768 0.0880001 12.696 0.104 12.648H3.656C3.64 12.696 3.632 12.76 3.632 12.84C3.632 12.92 3.632 12.992 3.632 13.056C3.632 13.568 3.768 14 4.04 14.352C4.328 14.704 4.744 14.968 5.288 15.144C5.832 15.32 6.464 15.408 7.184 15.408C7.648 15.408 8.056 15.384 8.408 15.336C8.776 15.272 9.096 15.192 9.368 15.096C9.656 14.984 9.888 14.856 10.064 14.712C10.256 14.568 10.392 14.4 10.472 14.208C10.568 14.016 10.616 13.8 10.616 13.56C10.616 13.128 10.472 12.776 10.184 12.504C9.912 12.232 9.528 12 9.032 11.808C8.552 11.616 8.008 11.44 7.4 11.28C6.792 11.12 6.168 10.96 5.528 10.8C4.888 10.624 4.264 10.416 3.656 10.176C3.048 9.92 2.504 9.616 2.024 9.264C1.544 8.912 1.16 8.464 0.872 7.92C0.584 7.376 0.44 6.72 0.44 5.952C0.44 5.136 0.608 4.432 0.944 3.84C1.296 3.248 1.784 2.76 2.408 2.376C3.032 1.992 3.752 1.712 4.568 1.536C5.384 1.344 6.272 1.248 7.232 1.248C8.128 1.248 8.976 1.344 9.776 1.536C10.576 1.712 11.28 2 11.888 2.4C12.496 2.8 12.968 3.304 13.304 3.912C13.656 4.52 13.832 5.24 13.832 6.072V6.36H10.352V6.168C10.352 5.736 10.224 5.368 9.968 5.064C9.712 4.76 9.352 4.52 8.888 4.344C8.424 4.168 7.88 4.08 7.256 4.08C6.584 4.08 6.008 4.144 5.528 4.272C5.064 4.4 4.704 4.592 4.448 4.848C4.208 5.088 4.088 5.376 4.088 5.712C4.088 6.096 4.224 6.416 4.496 6.672C4.784 6.912 5.168 7.128 5.648 7.32C6.144 7.496 6.696 7.656 7.304 7.8C7.912 7.944 8.536 8.104 9.176 8.28C9.816 8.456 10.44 8.664 11.048 8.904C11.656 9.144 12.2 9.448 12.68 9.816C13.16 10.168 13.544 10.608 13.832 11.136C14.12 11.664 14.264 12.296 14.264 13.032C14.264 14.296 13.96 15.312 13.352 16.08C12.744 16.848 11.912 17.408 10.856 17.76C9.8 18.112 8.592 18.288 7.232 18.288ZM20.1611 18.288C19.7451 18.288 19.2971 18.24 18.8171 18.144C18.3531 18.048 17.9131 17.88 17.4971 17.64C17.0811 17.384 16.7371 17.024 16.4651 16.56C16.2091 16.08 16.0811 15.472 16.0811 14.736C16.0811 13.856 16.2731 13.128 16.6571 12.552C17.0411 11.976 17.5851 11.528 18.2891 11.208C19.0091 10.872 19.8651 10.64 20.8571 10.512C21.8491 10.384 22.9451 10.32 24.1451 10.32V9.384C24.1451 9.016 24.0811 8.696 23.9531 8.424C23.8411 8.152 23.6331 7.936 23.3291 7.776C23.0411 7.616 22.6331 7.536 22.1051 7.536C21.5771 7.536 21.1451 7.6 20.8091 7.728C20.4891 7.856 20.2571 8.024 20.1131 8.232C19.9851 8.424 19.9211 8.64 19.9211 8.88V9.168H16.6811C16.6651 9.088 16.6571 9.016 16.6571 8.952C16.6571 8.872 16.6571 8.776 16.6571 8.664C16.6571 7.928 16.8811 7.296 17.3291 6.768C17.7771 6.224 18.4091 5.808 19.2251 5.52C20.0411 5.232 20.9931 5.088 22.0811 5.088C23.2491 5.088 24.2251 5.24 25.0091 5.544C25.8091 5.848 26.4171 6.296 26.8331 6.888C27.2651 7.48 27.4811 8.224 27.4811 9.12V14.856C27.4811 15.144 27.5611 15.36 27.7211 15.504C27.8971 15.632 28.0891 15.696 28.2971 15.696H29.0891V17.88C28.9291 17.96 28.6811 18.04 28.3451 18.12C28.0091 18.216 27.6011 18.264 27.1211 18.264C26.6571 18.264 26.2411 18.192 25.8731 18.048C25.5211 17.92 25.2251 17.736 24.9851 17.496C24.7451 17.24 24.5771 16.936 24.4811 16.584H24.3131C24.0411 16.92 23.7051 17.216 23.3051 17.472C22.9211 17.728 22.4651 17.928 21.9371 18.072C21.4251 18.216 20.8331 18.288 20.1611 18.288ZM21.2891 15.768C21.7371 15.768 22.1371 15.704 22.4891 15.576C22.8411 15.432 23.1371 15.248 23.3771 15.024C23.6171 14.784 23.8011 14.496 23.9291 14.16C24.0731 13.824 24.1451 13.464 24.1451 13.08V12.384C23.2491 12.384 22.4491 12.448 21.7451 12.576C21.0411 12.688 20.4811 12.888 20.0651 13.176C19.6651 13.464 19.4651 13.864 19.4651 14.376C19.4651 14.664 19.5371 14.912 19.6811 15.12C19.8251 15.328 20.0331 15.488 20.3051 15.6C20.5771 15.712 20.9051 15.768 21.2891 15.768ZM30.7469 18V0.647999H34.0829V18H30.7469ZM41.2254 18.288C39.9454 18.288 38.9294 17.936 38.1774 17.232C37.4254 16.528 37.0494 15.392 37.0494 13.824V5.376H40.3854V13.272C40.3854 13.688 40.4334 14.04 40.5294 14.328C40.6254 14.6 40.7614 14.824 40.9374 15C41.1294 15.176 41.3614 15.304 41.6334 15.384C41.9054 15.464 42.2094 15.504 42.5454 15.504C43.0414 15.504 43.4894 15.384 43.8894 15.144C44.2894 14.904 44.6014 14.576 44.8254 14.16C45.0494 13.728 45.1614 13.248 45.1614 12.72V5.376H48.4974V18H45.7614L45.5214 16.272H45.3534C45.0494 16.672 44.6894 17.024 44.2734 17.328C43.8734 17.632 43.4174 17.864 42.9054 18.024C42.3934 18.2 41.8334 18.288 41.2254 18.288ZM56.6714 18.288C55.7914 18.288 54.9994 18.192 54.2954 18C53.5914 17.808 52.9914 17.544 52.4954 17.208C51.9994 16.856 51.6154 16.44 51.3434 15.96C51.0874 15.48 50.9594 14.936 50.9594 14.328C50.9594 14.264 50.9594 14.2 50.9594 14.136C50.9594 14.072 50.9674 14.024 50.9834 13.992H54.1994C54.1994 14.024 54.1994 14.056 54.1994 14.088C54.1994 14.12 54.1994 14.152 54.1994 14.184C54.2154 14.584 54.3434 14.912 54.5834 15.168C54.8234 15.408 55.1354 15.584 55.5194 15.696C55.9194 15.808 56.3354 15.864 56.7674 15.864C57.1514 15.864 57.5194 15.832 57.8714 15.768C58.2394 15.688 58.5434 15.552 58.7834 15.36C59.0394 15.168 59.1674 14.92 59.1674 14.616C59.1674 14.232 59.0074 13.936 58.6874 13.728C58.3834 13.52 57.9754 13.352 57.4634 13.224C56.9674 13.096 56.4234 12.952 55.8314 12.792C55.2874 12.664 54.7434 12.52 54.1994 12.36C53.6554 12.184 53.1594 11.96 52.7114 11.688C52.2794 11.416 51.9274 11.064 51.6554 10.632C51.3834 10.184 51.2474 9.624 51.2474 8.952C51.2474 8.296 51.3914 7.728 51.6794 7.248C51.9674 6.752 52.3594 6.344 52.8554 6.024C53.3674 5.704 53.9594 5.472 54.6314 5.328C55.3194 5.168 56.0554 5.088 56.8394 5.088C57.5754 5.088 58.2634 5.168 58.9034 5.328C59.5434 5.472 60.1034 5.696 60.5834 6C61.0634 6.288 61.4394 6.656 61.7114 7.104C61.9834 7.536 62.1194 8.024 62.1194 8.568C62.1194 8.68 62.1194 8.784 62.1194 8.88C62.1194 8.976 62.1114 9.04 62.0954 9.072H58.9034V8.88C58.9034 8.592 58.8154 8.352 58.6394 8.16C58.4634 7.952 58.2074 7.792 57.8714 7.68C57.5514 7.568 57.1594 7.512 56.6954 7.512C56.3754 7.512 56.0794 7.536 55.8074 7.584C55.5514 7.632 55.3274 7.704 55.1354 7.8C54.9434 7.896 54.7914 8.016 54.6794 8.16C54.5834 8.288 54.5354 8.448 54.5354 8.64C54.5354 8.912 54.6474 9.136 54.8714 9.312C55.1114 9.472 55.4234 9.608 55.8074 9.72C56.1914 9.832 56.6154 9.952 57.0794 10.08C57.6554 10.24 58.2554 10.4 58.8794 10.56C59.5194 10.704 60.1114 10.904 60.6554 11.16C61.1994 11.416 61.6394 11.784 61.9754 12.264C62.3114 12.728 62.4794 13.36 62.4794 14.16C62.4794 14.928 62.3274 15.576 62.0234 16.104C61.7354 16.632 61.3274 17.056 60.7994 17.376C60.2714 17.696 59.6554 17.928 58.9514 18.072C58.2474 18.216 57.4874 18.288 56.6714 18.288ZM65.3034 18V14.568H68.7834V18H65.3034ZM72.3988 18V0.647999H74.1268V11.832L79.8628 5.376H81.9508L77.5828 10.296L82.1908 18H80.1748L76.4548 11.568L74.1268 13.944V18H72.3988ZM86.5588 22.368C85.9508 22.368 85.3828 22.232 84.8548 21.96C84.3428 21.704 83.9348 21.336 83.6308 20.856C83.3268 20.392 83.1748 19.848 83.1748 19.224C83.1748 18.52 83.3588 17.92 83.7268 17.424C84.1108 16.928 84.5908 16.56 85.1668 16.32C84.7508 16.144 84.4308 15.88 84.2068 15.528C83.9828 15.176 83.8708 14.792 83.8708 14.376C83.8708 13.832 84.0708 13.368 84.4708 12.984C84.8708 12.584 85.3588 12.32 85.9348 12.192C85.4068 11.84 84.9828 11.392 84.6628 10.848C84.3588 10.304 84.2068 9.72 84.2068 9.096C84.2068 8.312 84.3908 7.624 84.7588 7.032C85.1268 6.424 85.6788 5.952 86.4148 5.616C87.1668 5.264 88.1028 5.088 89.2228 5.088C89.7508 5.088 90.2388 5.128 90.6868 5.208C91.1508 5.288 91.5668 5.408 91.9348 5.568C92.4948 5.36 92.9268 5.064 93.2308 4.68C93.5348 4.28 93.7348 3.84 93.8308 3.36H95.5588C95.5428 3.808 95.4308 4.24 95.2228 4.656C95.0148 5.072 94.7268 5.424 94.3588 5.712C93.9908 6 93.5508 6.184 93.0388 6.264C93.4548 6.648 93.7588 7.08 93.9508 7.56C94.1428 8.04 94.2388 8.552 94.2388 9.096C94.2388 9.848 94.0548 10.528 93.6868 11.136C93.3348 11.728 92.7908 12.2 92.0548 12.552C91.3348 12.904 90.4068 13.08 89.2708 13.08H87.2788C86.7988 13.08 86.4068 13.176 86.1028 13.368C85.7988 13.544 85.6468 13.848 85.6468 14.28C85.6468 14.648 85.8068 14.936 86.1268 15.144C86.4468 15.352 86.8468 15.456 87.3268 15.456H92.2708C93.1988 15.456 93.9508 15.768 94.5268 16.392C95.1188 17.016 95.4148 17.8 95.4148 18.744C95.4148 19.416 95.2468 20.024 94.9108 20.568C94.5748 21.128 94.1108 21.568 93.5188 21.888C92.9428 22.208 92.2628 22.368 91.4788 22.368H86.5588ZM86.9428 21H91.4308C91.8468 21 92.2228 20.912 92.5588 20.736C92.8948 20.56 93.1588 20.312 93.3508 19.992C93.5588 19.688 93.6628 19.36 93.6628 19.008C93.6628 18.4 93.4868 17.912 93.1348 17.544C92.7828 17.176 92.3428 16.992 91.8148 16.992H86.9428C86.3988 16.992 85.9268 17.192 85.5268 17.592C85.1268 17.976 84.9268 18.448 84.9268 19.008C84.9268 19.616 85.1188 20.096 85.5028 20.448C85.9028 20.816 86.3828 21 86.9428 21ZM89.2228 11.712C90.3428 11.712 91.1668 11.48 91.6948 11.016C92.2388 10.536 92.5108 9.896 92.5108 9.096C92.5108 8.28 92.2388 7.64 91.6948 7.176C91.1668 6.696 90.3428 6.456 89.2228 6.456C88.1348 6.456 87.3188 6.696 86.7748 7.176C86.2308 7.64 85.9588 8.28 85.9588 9.096C85.9588 9.592 86.0788 10.04 86.3188 10.44C86.5588 10.84 86.9188 11.152 87.3988 11.376C87.8948 11.6 88.5028 11.712 89.2228 11.712Z" fill="#45651C"/>
</svg>
