<svg width="56" height="56" viewBox="0 0 56 56" fill="none" xmlns="http://www.w3.org/2000/svg">
<rect width="56" height="56" rx="28" fill="#45651C"/>
<path fill-rule="evenodd" clip-rule="evenodd" d="M19.3035 30.4008C19.1109 30.4008 18.9537 30.245 18.9537 30.0511V25.3276C18.9537 25.1336 19.1095 24.9778 19.3035 24.9778C19.496 24.9778 19.6532 25.1336 19.6532 25.3276V30.0511C19.6532 30.245 19.496 30.4008 19.3035 30.4008ZM40.4774 41.6533H19.3035C19.1109 41.6533 18.9537 41.4961 18.9537 41.3035V34.245C18.9537 34.0524 19.1095 33.8952 19.3035 33.8952C19.496 33.8952 19.6532 34.0524 19.6532 34.245V40.9538H40.129V25.3276C40.129 25.1336 40.2848 24.9778 40.4787 24.9778C40.6713 24.9778 40.8285 25.1336 40.8285 25.3276V41.3035C40.8285 41.4961 40.6713 41.6533 40.4787 41.6533H40.4774Z" fill="white" stroke="white" stroke-width="0.3"/>
<path fill-rule="evenodd" clip-rule="evenodd" d="M29.8919 17.2764C29.9641 17.2764 30.0363 17.2991 30.0972 17.343L41.7944 25.8515C41.9997 26.0002 42.2518 26.0611 42.5024 26.02C42.753 25.9803 42.9739 25.8444 43.1226 25.6391C43.2712 25.4338 43.3321 25.1818 43.2911 24.9297C43.2514 24.6791 43.1155 24.4582 42.9102 24.3096L30.4796 15.266C30.474 15.2618 30.4683 15.2575 30.464 15.2533C30.1214 14.9729 29.6626 14.9729 29.3214 15.2533C29.3157 15.2575 29.3101 15.2618 29.3058 15.266L16.8753 24.3096C16.67 24.4582 16.5326 24.6791 16.493 24.9297C16.4533 25.1803 16.5128 25.4324 16.6629 25.6391C16.8116 25.8444 17.0324 25.9803 17.283 26.02C17.5337 26.0596 17.7857 26.0002 17.991 25.8515L29.6868 17.343C29.7477 17.2991 29.8211 17.2764 29.8919 17.2764ZM42.3478 26.7321C42.0023 26.7321 41.6667 26.6245 41.3821 26.4178L29.8904 18.0582L18.4001 26.4178C18.0419 26.6769 17.6058 26.7802 17.1697 26.7123C16.735 26.6429 16.3527 26.4079 16.0935 26.051C15.8344 25.6942 15.7311 25.2581 15.799 24.822C15.8684 24.3873 16.1035 24.0036 16.4603 23.7459L28.8825 14.7078C29.4757 14.2264 30.3013 14.2264 30.8945 14.7078L43.3178 23.7459C43.6746 24.0036 43.9083 24.3859 43.9791 24.822C44.0484 25.2567 43.9437 25.6942 43.686 26.051C43.4269 26.4079 43.0446 26.6429 42.6098 26.7123C42.522 26.7264 42.4343 26.7335 42.3465 26.7335L42.3478 26.7321Z" fill="white" stroke="white" stroke-width="0.3"/>
<path fill-rule="evenodd" clip-rule="evenodd" d="M28.3441 41.6533C28.1515 41.6533 27.9943 41.4961 27.9943 41.3035V31.6057H23.0541V41.3035C23.0541 41.4961 22.8983 41.6533 22.7043 41.6533C22.5118 41.6533 22.3546 41.4961 22.3546 41.3035V31.2574C22.3546 31.0648 22.5104 30.9077 22.7043 30.9077H28.3442C28.5368 30.9077 28.6939 31.0648 28.6939 31.2574V41.3035C28.6939 41.4961 28.5366 41.6533 28.3441 41.6533Z" fill="white" stroke="white" stroke-width="0.3"/>
<path fill-rule="evenodd" clip-rule="evenodd" d="M31.3643 36.5474H37.4573V31.6057H31.3643V36.5474ZM37.8067 37.2454H31.0145C30.822 37.2454 30.6648 37.0883 30.6648 36.8957V31.2559C30.6648 31.0633 30.8205 30.9061 31.0145 30.9061H37.8067C37.9993 30.9061 38.1564 31.0633 38.1564 31.2559V36.8957C38.1564 37.0883 37.9993 37.2454 37.8067 37.2454Z" fill="white" stroke="white" stroke-width="0.3"/>
<path fill-rule="evenodd" clip-rule="evenodd" d="M34.4117 37.247C34.2192 37.247 34.062 37.0898 34.062 36.8972V31.2574C34.062 31.0648 34.2178 30.9077 34.4117 30.9077C34.6043 30.9077 34.7615 31.0634 34.7615 31.2574V36.8972C34.7615 37.0898 34.6043 37.247 34.4117 37.247Z" fill="white" stroke="white" stroke-width="0.3"/>
<path fill-rule="evenodd" clip-rule="evenodd" d="M37.8084 34.4262H31.0162C30.8237 34.4262 30.6665 34.269 30.6665 34.0764C30.6665 33.8839 30.8237 33.7267 31.0162 33.7267H37.8084C38.001 33.7267 38.1581 33.8824 38.1581 34.0764C38.1581 34.269 38.001 34.4262 37.8084 34.4262Z" fill="white" stroke="white" stroke-width="0.3"/>
<path fill-rule="evenodd" clip-rule="evenodd" d="M26.5049 37.1422C26.3123 37.1422 26.1552 36.9865 26.1552 36.7925V35.7659C26.1552 35.5734 26.3109 35.4176 26.5049 35.4176C26.6975 35.4176 26.8546 35.5734 26.8546 35.7659V36.7925C26.8546 36.985 26.6975 37.1422 26.5049 37.1422Z" fill="white" stroke="white" stroke-width="0.3"/>
<path fill-rule="evenodd" clip-rule="evenodd" d="M29.8919 22.6571C28.755 22.6571 27.8303 23.5817 27.8303 24.7187C27.8303 25.8557 28.755 26.7803 29.8919 26.7803C31.0275 26.7803 31.9536 25.8557 31.9536 24.7187C31.9536 23.5817 31.0289 22.6571 29.8919 22.6571ZM29.8919 27.4785C28.3698 27.4785 27.1309 26.2409 27.1309 24.7188C27.1309 23.1967 28.3698 21.9591 29.8919 21.9591C31.4141 21.9591 32.6516 23.1967 32.6516 24.7188C32.6516 26.2409 31.4141 27.4785 29.8919 27.4785Z" fill="white" stroke="white" stroke-width="0.3"/>
<path fill-rule="evenodd" clip-rule="evenodd" d="M16.7349 30.3482C16.541 30.3482 16.3852 30.1911 16.3852 29.9985V28.4778H15.1887V29.9985C15.1887 30.1911 15.0316 30.3482 14.839 30.3482C14.6464 30.3482 14.4893 30.1911 14.4893 29.9985V28.1295C14.4893 27.9369 14.645 27.7797 14.839 27.7797H16.735C16.9275 27.7797 17.0847 27.9355 17.0847 28.1295V29.9985C17.0847 30.1911 16.9275 30.3482 16.7349 30.3482ZM16.7349 41.6533H14.839C14.7455 41.6533 14.6563 41.6164 14.5912 41.5513C14.5261 41.4862 14.4893 41.397 14.4893 41.3035L14.5006 34.299C14.5006 34.1064 14.6563 33.9506 14.8503 33.9506H14.8517C15.0443 33.9506 15.2001 34.1078 15.2001 34.3004L15.1901 40.9551H16.3866L16.398 34.2989C16.398 34.1063 16.5537 33.9506 16.7477 33.9506C16.9403 33.9506 17.0974 34.1078 17.0974 34.3003L17.0861 41.3035C17.0847 41.496 16.9289 41.6532 16.7364 41.6532L16.7349 41.6533Z" fill="white" stroke="white" stroke-width="0.3"/>
<path fill-rule="evenodd" clip-rule="evenodd" d="M12.6995 33.9491H19.0995L20.7193 32.148L19.0995 30.3469H12.6995V33.9491ZM19.2554 34.6472H12.3497C12.1572 34.6472 12 34.49 12 34.2975V29.9973C12 29.8048 12.1558 29.6476 12.3497 29.6476H19.2554C19.3545 29.6476 19.4493 29.6901 19.5145 29.7637L21.4486 31.9145C21.5676 32.0476 21.5676 32.2487 21.4486 32.3804L19.5145 34.5312C19.4479 34.6048 19.3531 34.6473 19.2539 34.6473L19.2554 34.6472Z" fill="white" stroke="white" stroke-width="0.3"/>
<path fill-rule="evenodd" clip-rule="evenodd" d="M17.5875 31.7133H14.6494C14.4569 31.7133 14.2997 31.5562 14.2997 31.3636C14.2997 31.171 14.4554 31.0139 14.6494 31.0139H17.5875C17.7801 31.0139 17.9372 31.171 17.9372 31.3636C17.9372 31.5562 17.7801 31.7133 17.5875 31.7133Z" fill="white" stroke="white" stroke-width="0.3"/>
<path fill-rule="evenodd" clip-rule="evenodd" d="M17.5875 33.2821H14.6494C14.4569 33.2821 14.2997 33.1264 14.2997 32.9324C14.2997 32.7398 14.4554 32.5827 14.6494 32.5827H17.5875C17.7801 32.5827 17.9372 32.7384 17.9372 32.9324C17.9372 33.125 17.7801 33.2821 17.5875 33.2821Z" fill="white" stroke="white" stroke-width="0.3"/>
</svg>
