<svg width="56" height="56" viewBox="0 0 56 56" fill="none" xmlns="http://www.w3.org/2000/svg">
<rect width="56" height="56" rx="28" fill="#45651C"/>
<path fill-rule="evenodd" clip-rule="evenodd" d="M30.608 15.9665C30.3303 15.9665 30.1047 15.7408 30.1047 15.4631V12.9982H25.8953V15.4631C25.8953 15.7408 25.6696 15.9665 25.3919 15.9665C25.1141 15.9665 24.8885 15.7408 24.8885 15.4631V12.5035C24.8885 12.2257 25.1141 12.0001 25.3919 12.0001H30.5994C30.8771 12.0001 31.1028 12.2257 31.1028 12.5035V15.4631C31.1028 15.7408 30.8771 15.9665 30.608 15.9665Z" fill="white"/>
<path fill-rule="evenodd" clip-rule="evenodd" d="M30.6082 44H25.4007C25.1229 44 24.8973 43.7743 24.8973 43.4966V40.537C24.8973 40.2593 25.1229 40.0336 25.4007 40.0336C25.6784 40.0336 25.9041 40.2593 25.9041 40.537V43.0019H30.1134V40.537C30.1134 40.2593 30.3391 40.0336 30.6168 40.0336C30.8946 40.0336 31.1202 40.2593 31.1202 40.537V43.4966C31.1029 43.7743 30.8772 44 30.6082 44Z" fill="white"/>
<path fill-rule="evenodd" clip-rule="evenodd" d="M17.2942 21.4776C17.164 21.4776 17.0425 21.4255 16.9384 21.33L14.838 19.2297C14.6471 19.0388 14.6471 18.7176 14.838 18.5267L18.518 14.8467C18.7089 14.6558 19.0301 14.6558 19.221 14.8467L21.3214 16.9471C21.5123 17.138 21.5123 17.4592 21.3214 17.6501C21.1304 17.841 20.8093 17.841 20.6183 17.6501L18.8738 15.9056L15.8969 18.8825L17.6414 20.627C17.8323 20.818 17.8323 21.1391 17.6414 21.33C17.5546 21.4255 17.4244 21.4776 17.2942 21.4776Z" fill="white"/>
<path fill-rule="evenodd" clip-rule="evenodd" d="M37.1175 41.3008C36.9873 41.3008 36.8571 41.2488 36.7616 41.1533L34.6613 39.0529C34.4703 38.862 34.4703 38.5409 34.6613 38.3499C34.8522 38.159 35.1733 38.159 35.3643 38.3499L37.1088 40.0944L40.0857 37.1175L38.3412 35.373C38.1503 35.182 38.1503 34.8609 38.3412 34.67C38.5322 34.479 38.8533 34.479 39.0442 34.67L41.1446 36.7703C41.2401 36.8658 41.2921 36.9873 41.2921 37.1262C41.2921 37.265 41.2401 37.3865 41.1446 37.482L37.4646 41.162C37.3778 41.2488 37.2477 41.3008 37.1175 41.3008Z" fill="white"/>
<path fill-rule="evenodd" clip-rule="evenodd" d="M15.463 31.1028H12.5034C12.2257 31.1028 12 30.8772 12 30.5995V25.392C12 25.1142 12.2257 24.8886 12.5034 24.8886H15.463C15.7407 24.8886 15.9664 25.1142 15.9664 25.392C15.9664 25.6697 15.7407 25.8954 15.463 25.8954H13.0068V30.1047H15.4717C15.7494 30.1047 15.975 30.3304 15.975 30.6081C15.975 30.8859 15.7407 31.1028 15.463 31.1028Z" fill="white"/>
<path fill-rule="evenodd" clip-rule="evenodd" d="M43.4965 31.1029H40.5369C40.2592 31.1029 40.0335 30.8773 40.0335 30.5995C40.0335 30.3218 40.2592 30.0961 40.5369 30.0961H43.0018V25.8868H40.5369C40.2592 25.8868 40.0335 25.6611 40.0335 25.3834C40.0335 25.1056 40.2592 24.88 40.5369 24.88H43.4965C43.7742 24.88 43.9999 25.1056 43.9999 25.3834V30.5909C43.9999 30.8773 43.7742 31.1029 43.4965 31.1029Z" fill="white"/>
<path fill-rule="evenodd" clip-rule="evenodd" d="M15.463 31.1028H12.5034C12.2257 31.1028 12 30.8772 12 30.5995V25.392C12 25.1142 12.2257 24.8886 12.5034 24.8886H15.463C15.7407 24.8886 15.9664 25.1142 15.9664 25.392C15.9664 25.6697 15.7407 25.8954 15.463 25.8954H13.0068V30.1047H15.4717C15.7494 30.1047 15.975 30.3304 15.975 30.6081C15.975 30.8859 15.7407 31.1028 15.463 31.1028Z" fill="white"/>
<path fill-rule="evenodd" clip-rule="evenodd" d="M43.4965 31.1029H40.5369C40.2592 31.1029 40.0335 30.8773 40.0335 30.5995C40.0335 30.3218 40.2592 30.0961 40.5369 30.0961H43.0018V25.8868H40.5369C40.2592 25.8868 40.0335 25.6611 40.0335 25.3834C40.0335 25.1056 40.2592 24.88 40.5369 24.88H43.4965C43.7742 24.88 43.9999 25.1056 43.9999 25.3834V30.5909C43.9999 30.8773 43.7742 31.1029 43.4965 31.1029Z" fill="white"/>
<path fill-rule="evenodd" clip-rule="evenodd" d="M18.8826 41.3008C18.7524 41.3008 18.6222 41.2488 18.5268 41.1533L14.8468 37.4733C14.6559 37.2824 14.6559 36.9613 14.8468 36.7703L16.9472 34.67C17.1381 34.479 17.4592 34.479 17.6502 34.67C17.8411 34.8609 17.8411 35.182 17.6502 35.373L15.9057 37.1175L18.8826 40.0944L20.6271 38.3499C20.8181 38.159 21.1392 38.159 21.3301 38.3499C21.5211 38.5409 21.5211 38.862 21.3301 39.0529L19.2298 41.1533C19.143 41.2488 19.0128 41.3008 18.8826 41.3008Z" fill="white"/>
<path fill-rule="evenodd" clip-rule="evenodd" d="M38.7057 21.4776C38.5755 21.4776 38.454 21.4255 38.3498 21.33C38.1589 21.1391 38.1589 20.818 38.3498 20.627L40.0943 18.8825L37.1174 15.9056L35.3729 17.6501C35.1819 17.841 34.8608 17.841 34.6699 17.6501C34.4789 17.4592 34.4789 17.138 34.6699 16.9471L36.7702 14.8467C36.9612 14.6558 37.2823 14.6558 37.4732 14.8467L41.1532 18.5267C41.2487 18.6222 41.3007 18.7437 41.3007 18.8825C41.3007 19.0214 41.2487 19.1429 41.1532 19.2384L39.0528 21.3387C38.9574 21.4255 38.8359 21.4776 38.7057 21.4776Z" fill="white"/>
<path fill-rule="evenodd" clip-rule="evenodd" d="M35.0258 17.7976C34.9303 17.7976 34.8349 17.7716 34.7481 17.7195C33.4462 16.869 32.0228 16.2701 30.504 15.9576C30.2349 15.9056 30.0613 15.6365 30.1134 15.3675C30.1655 15.0984 30.4345 14.9248 30.7036 14.9769C32.3439 15.3154 33.8888 15.9576 35.2949 16.8776C35.5292 17.0252 35.5899 17.3376 35.4337 17.572C35.3469 17.7195 35.182 17.7976 35.0258 17.7976Z" fill="white"/>
<path fill-rule="evenodd" clip-rule="evenodd" d="M15.4629 25.8954C15.4282 25.8954 15.3935 25.8954 15.3588 25.8867C15.0897 25.8346 14.9161 25.5656 14.9682 25.2965C15.3067 23.6562 15.949 22.1113 16.8689 20.7053C17.0165 20.4709 17.3289 20.4102 17.5633 20.5664C17.7976 20.7139 17.8584 21.0264 17.7021 21.2607C16.8516 22.5626 16.2527 23.986 15.9403 25.5048C15.9056 25.7305 15.6973 25.8954 15.4629 25.8954Z" fill="white"/>
<path fill-rule="evenodd" clip-rule="evenodd" d="M40.537 25.8954C40.3027 25.8954 40.0944 25.7305 40.051 25.4962C39.7385 23.9773 39.1483 22.5539 38.2891 21.2521C38.1416 21.0177 38.2023 20.7139 38.428 20.5577C38.6623 20.4102 38.9661 20.4709 39.1223 20.6966C40.0423 22.1026 40.6845 23.6475 41.023 25.2879C41.0751 25.5569 40.9015 25.826 40.6325 25.878C40.6064 25.8954 40.5717 25.8954 40.537 25.8954Z" fill="white"/>
<path fill-rule="evenodd" clip-rule="evenodd" d="M30.608 41.0318C30.3737 41.0318 30.1654 40.8669 30.122 40.6326C30.0699 40.3635 30.2435 40.0945 30.5126 40.0424C32.0314 39.7299 33.4548 39.1398 34.7567 38.2805C34.991 38.133 35.2948 38.1937 35.451 38.4194C35.5986 38.6537 35.5378 38.9575 35.3121 39.1137C33.9061 40.0337 32.3612 40.676 30.7209 41.0145C30.6688 41.0318 30.6341 41.0318 30.608 41.0318Z" fill="white"/>
<path fill-rule="evenodd" clip-rule="evenodd" d="M17.2943 35.5206C17.1294 35.5206 16.9732 35.4425 16.8777 35.2949C15.9577 33.8889 15.3155 32.344 14.977 30.7037C14.9249 30.4346 15.0985 30.1655 15.3676 30.1135C15.6366 30.0614 15.9057 30.235 15.9577 30.504C16.2702 32.0229 16.8604 33.4463 17.7196 34.7481C17.8672 34.9825 17.8064 35.2862 17.5807 35.4425C17.4853 35.4945 17.3898 35.5206 17.2943 35.5206Z" fill="white"/>
<path fill-rule="evenodd" clip-rule="evenodd" d="M25.4006 41.0318C25.3659 41.0318 25.3312 41.0318 25.2964 41.0232C23.6561 40.6847 22.1112 40.0424 20.7052 39.1224C20.4708 38.9749 20.4101 38.6624 20.5663 38.4281C20.7138 38.1938 21.0263 38.133 21.2606 38.2892C22.5625 39.1398 23.9859 39.7387 25.5047 40.0511C25.7738 40.1032 25.9474 40.3722 25.8953 40.6413C25.8345 40.8669 25.6262 41.0318 25.4006 41.0318Z" fill="white"/>
<path fill-rule="evenodd" clip-rule="evenodd" d="M38.7057 35.5206C38.6103 35.5206 38.5148 35.4945 38.428 35.4425C38.1937 35.2949 38.1329 34.9825 38.2891 34.7481C39.1397 33.4463 39.7386 32.0229 40.051 30.504C40.1031 30.235 40.3721 30.0614 40.6412 30.1135C40.9102 30.1655 41.0838 30.4346 41.0318 30.7037C40.6933 32.344 40.051 33.8889 39.131 35.2949C39.0269 35.4425 38.8706 35.5206 38.7057 35.5206Z" fill="white"/>
<path fill-rule="evenodd" clip-rule="evenodd" d="M20.983 17.7976C20.8181 17.7976 20.6619 17.7195 20.5664 17.572C20.4189 17.3376 20.4797 17.0339 20.7053 16.8776C22.1113 15.9576 23.6562 15.3154 25.2966 14.9769C25.5656 14.9248 25.8347 15.0984 25.8868 15.3675C25.9388 15.6365 25.7653 15.9056 25.4962 15.9576C23.9774 16.2701 22.554 16.8603 21.2521 17.7195C21.174 17.7716 21.0785 17.7976 20.983 17.7976Z" fill="white"/>
<path fill-rule="evenodd" clip-rule="evenodd" d="M28.0044 37.9074C26.6678 37.9074 25.3659 37.647 24.1508 37.1263C22.9705 36.6229 21.9116 35.9112 21.0003 34.9999C20.089 34.0886 19.3773 33.0297 18.8739 31.8494C18.3531 30.6256 18.0928 29.3324 18.0928 27.9958C18.0928 26.6592 18.3531 25.3574 18.8739 24.1423C19.3773 22.9619 20.089 21.9031 21.0003 20.9917C21.9116 20.0804 22.9705 19.3687 24.1508 18.8654C25.3746 18.3446 26.6678 18.0842 28.0044 18.0842C29.3409 18.0842 30.6428 18.3446 31.8579 18.8654C33.0383 19.3687 34.0971 20.0804 35.0084 20.9917C35.9197 21.9031 36.6314 22.9619 37.1348 24.1423C37.6556 25.366 37.9159 26.6592 37.9159 27.9958C37.9159 29.3324 37.6556 30.6343 37.1348 31.8494C36.6314 33.0297 35.9197 34.0886 35.0084 34.9999C34.0971 35.9112 33.0383 36.6229 31.8579 37.1263C30.6341 37.647 29.3409 37.9074 28.0044 37.9074ZM28.0044 19.091C23.092 19.091 19.0996 23.0834 19.0996 27.9958C19.0996 32.9082 23.092 36.9006 28.0044 36.9006C32.9168 36.9006 36.9092 32.9082 36.9092 27.9958C36.9092 23.0834 32.9168 19.091 28.0044 19.091Z" fill="white"/>
<path fill-rule="evenodd" clip-rule="evenodd" d="M29.8703 37.725C29.5926 37.725 29.3669 37.4994 29.3669 37.2216V31.9621C29.3669 31.7625 29.4797 31.5889 29.662 31.5108C31.0767 30.8598 31.9967 29.4365 31.9967 27.8829C31.9967 26.607 31.3805 25.4093 30.3737 24.6716V27.5444C30.3737 27.7267 30.2782 27.8916 30.122 27.9784L28.256 29.0285C28.0998 29.1153 27.9175 29.1153 27.77 29.0285L25.9039 27.9784C25.7477 27.8916 25.6522 27.7267 25.6522 27.5444V24.6716C24.6455 25.418 24.0292 26.607 24.0292 27.8829C24.0292 29.4365 24.9406 30.8685 26.3639 31.5108C26.5375 31.5889 26.659 31.7711 26.659 31.9621V37.2216C26.659 37.4994 26.4334 37.725 26.1556 37.725C25.8779 37.725 25.6522 37.4994 25.6522 37.2216V32.2745C24.9232 31.884 24.2983 31.3111 23.8383 30.6081C23.3089 29.7923 23.0225 28.8549 23.0225 27.8742C23.0225 26.9021 23.3002 25.9561 23.8383 25.1403C24.359 24.3505 25.0794 23.7256 25.9387 23.335C26.0949 23.2656 26.2771 23.2743 26.416 23.3697C26.5549 23.4652 26.6417 23.6214 26.6417 23.7863V27.2406L28.0043 28.0044L29.3669 27.2406V23.7863C29.3669 23.6127 29.4537 23.4565 29.5926 23.3697C29.7314 23.2743 29.9137 23.2656 30.0699 23.335C30.9292 23.7256 31.6582 24.3505 32.1703 25.1403C32.6997 25.9561 32.9861 26.8935 32.9861 27.8742C32.9861 28.8463 32.7084 29.7923 32.1703 30.6081C31.7103 31.3111 31.0941 31.8753 30.3563 32.2745V37.2216C30.365 37.4994 30.1394 37.725 29.8703 37.725Z" fill="white"/>
</svg>
