<svg width="56" height="56" viewBox="0 0 56 56" fill="none" xmlns="http://www.w3.org/2000/svg">
<rect width="56" height="56" rx="28" fill="#45651C"/>
<path d="M40.2667 12C39.3697 12.0011 38.5031 12.325 37.8253 12.9126C37.1476 13.5002 36.7041 14.3122 36.576 15.2H31.7333C31.5919 15.2 31.4562 15.2562 31.3562 15.3562C31.2562 15.4562 31.2 15.5919 31.2 15.7333C31.2 15.8748 31.2562 16.0104 31.3562 16.1105C31.4562 16.2105 31.5919 16.2667 31.7333 16.2667H36.5333V37.0667C36.5333 37.2081 36.5895 37.3438 36.6895 37.4438C36.7896 37.5438 36.9252 37.6 37.0667 37.6C37.2081 37.6 37.3438 37.5438 37.4438 37.4438C37.5438 37.3438 37.6 37.2081 37.6 37.0667C37.6 36.3594 37.881 35.6811 38.3811 35.181C38.8811 34.681 39.5594 34.4 40.2667 34.4C40.9739 34.4 41.6522 34.681 42.1523 35.181C42.6524 35.6811 42.9333 36.3594 42.9333 37.0667V37.1787C42.9319 37.8558 42.6623 38.5047 42.1835 38.9835C41.7047 39.4623 41.0558 39.7319 40.3787 39.7333H19.4667V16.2667H24.2667C24.4081 16.2667 24.5438 16.2105 24.6438 16.1105C24.7438 16.0104 24.8 15.8748 24.8 15.7333C24.8 15.5919 24.7438 15.4562 24.6438 15.3562C24.5438 15.2562 24.4081 15.2 24.2667 15.2H19.4667V12.5333C19.4667 12.3919 19.4105 12.2562 19.3105 12.1562C19.2104 12.0562 19.0748 12 18.9333 12H12.5333C12.3919 12 12.2562 12.0562 12.1562 12.1562C12.0562 12.2562 12 12.3919 12 12.5333V43.4667C12 43.6081 12.0562 43.7438 12.1562 43.8438C12.2562 43.9438 12.3919 44 12.5333 44H18.9333C19.0748 44 19.2104 43.9438 19.3105 43.8438C19.4105 43.7438 19.4667 43.6081 19.4667 43.4667V40.8H40.3787C41.339 40.7986 42.2596 40.4163 42.9385 39.737C43.6174 39.0577 43.9992 38.1369 44 37.1765V15.7333C43.9989 14.7435 43.6052 13.7946 42.9053 13.0947C42.2054 12.3948 41.2565 12.0011 40.2667 12ZM18.4 42.9333H13.0667V41.3333H15.2V40.2667H13.0667V39.2H14.1333V38.1333H13.0667V37.0667H15.2V36H13.0667V34.9333H14.1333V33.8667H13.0667V32.8H15.2V31.7333H13.0667V30.6667H14.1333V29.6H13.0667V28.5333H15.2V27.4667H13.0667V26.4H14.1333V25.3333H13.0667V24.2667H15.2V23.2H13.0667V22.1333H14.1333V21.0667H13.0667V20H15.2V18.9333H13.0667V17.8667H14.1333V16.8H13.0667V15.7333H15.2V14.6667H13.0667V13.0667H18.4V42.9333ZM42.9333 34.4533C42.5861 34.098 42.1713 33.8156 41.7133 33.6228C41.2554 33.43 40.7635 33.3307 40.2667 33.3307C39.7698 33.3307 39.2779 33.43 38.82 33.6228C38.3621 33.8156 37.9473 34.098 37.6 34.4533V15.7333C37.6 15.0261 37.881 14.3478 38.3811 13.8477C38.8811 13.3476 39.5594 13.0667 40.2667 13.0667C40.9739 13.0667 41.6522 13.3476 42.1523 13.8477C42.6524 14.3478 42.9333 15.0261 42.9333 15.7333V34.4533Z" fill="white"/>
<path d="M27.5226 35.1717C27.5669 35.2605 27.635 35.3351 27.7193 35.3873C27.8036 35.4395 27.9008 35.4672 28 35.4672C28.0991 35.4672 28.1963 35.4395 28.2807 35.3873C28.365 35.3351 28.4331 35.2605 28.4773 35.1717L30.0773 31.9717C30.1142 31.8977 30.1334 31.8161 30.1333 31.7333V14.1333C30.1333 13.5675 29.9085 13.0249 29.5085 12.6248C29.1084 12.2248 28.5658 12 28 12C27.4342 12 26.8916 12.2248 26.4915 12.6248C26.0914 13.0249 25.8666 13.5675 25.8666 14.1333V31.7333C25.8666 31.8161 25.8857 31.8977 25.9226 31.9717L27.5226 35.1717ZM28.5333 30.3813V18.4H29.0666V30.7371L28.5333 30.3813ZM27.4666 30.3813L26.9333 30.7371V18.4H27.4666V30.3813ZM29.0666 17.3333H26.9333V16.2667H29.0666V17.3333ZM28 33.7408L27.0874 31.9157L28 31.3067L28.9125 31.9147L28 33.7408ZM26.9333 14.1333C26.9333 13.8504 27.0457 13.5791 27.2457 13.3791C27.4458 13.179 27.7171 13.0667 28 13.0667C28.2829 13.0667 28.5542 13.179 28.7542 13.3791C28.9543 13.5791 29.0666 13.8504 29.0666 14.1333V15.2H26.9333V14.1333Z" fill="white"/>
<path d="M21.6 37.0667C21.6 37.2081 21.6562 37.3438 21.7562 37.4438C21.8563 37.5438 21.9919 37.6 22.1334 37.6H33.8667C34.0082 37.6 34.1438 37.5438 34.2438 37.4438C34.3438 37.3438 34.4 37.2081 34.4 37.0667C34.4 36.9252 34.3438 36.7896 34.2438 36.6895C34.1438 36.5895 34.0082 36.5333 33.8667 36.5333H22.1334C21.9919 36.5333 21.8563 36.5895 21.7562 36.6895C21.6562 36.7896 21.6 36.9252 21.6 37.0667Z" fill="white"/>
</svg>
